<svg height="512pt" viewBox="0 -58 512 512" width="512pt" xmlns="http://www.w3.org/2000/svg"><path d="m197 350h-182c-8.285156 0-15-6.714844-15-15v-140c0-74.4375 60.5625-135 135-135h62c8.285156 0 15 6.714844 15 15v260c0 8.285156-6.714844 15-15 15zm0 0" fill="#13cad0"/><path d="m497 350h-300c-8.285156 0-15-6.714844-15-15v-320c0-8.285156 6.714844-15 15-15h300c8.285156 0 15 6.714844 15 15v320c0 8.285156-6.714844 15-15 15zm0 0" fill="#ff4964"/><path d="m497 0h-150v350h150c8.285156 0 15-6.714844 15-15v-320c0-8.285156-6.714844-15-15-15zm0 0" fill="#f72141"/><path d="m135 230h-120c-8.285156 0-15-6.714844-15-15v-20c0-74.4375 60.5625-135 135-135 8.285156 0 15 6.714844 15 15v140c0 8.285156-6.714844 15-15 15zm0 0" fill="#d9ecfa"/><path d="m347 141c-8.285156 0-15-6.714844-15-15v-40c0-8.285156 6.714844-15 15-15s15 6.714844 15 15v40c0 8.285156-6.714844 15-15 15zm0 0" fill="#ffaf00"/><path d="m367 101h-40c-8.285156 0-15-6.714844-15-15s6.714844-15 15-15h40c8.285156 0 15 6.714844 15 15s-6.714844 15-15 15zm0 0" fill="#ffd55f"/><path d="m362 126v-40c0-8.285156-6.714844-15-15-15v70c8.285156 0 15-6.714844 15-15zm0 0" fill="#f39b00"/><path d="m367 71h-20v30h20c8.285156 0 15-6.714844 15-15s-6.714844-15-15-15zm0 0" fill="#ffc32a"/><path d="m422 216h-150c-8.285156 0-15-6.714844-15-15 0-49.625 40.375-90 90-90s90 40.375 90 90c0 8.285156-6.714844 15-15 15zm0 0" fill="#ffd55f"/><path d="m347 111v105h75c8.285156 0 15-6.714844 15-15 0-49.625-40.375-90-90-90zm0 0" fill="#ffc32a"/><path d="m437 216h-180c-8.285156 0-15-6.714844-15-15s6.714844-15 15-15h180c8.285156 0 15 6.714844 15 15s-6.714844 15-15 15zm0 0" fill="#d9ecfa"/><path d="m437 186h-90v30h90c8.285156 0 15-6.714844 15-15s-6.714844-15-15-15zm0 0" fill="#c1daee"/><path d="m115 395c-33.085938 0-60-26.914062-60-60s26.914062-60 60-60 60 26.914062 60 60-26.914062 60-60 60zm0 0" fill="#424278"/><path d="m115 275v120c33.085938 0 60-26.914062 60-60s-26.914062-60-60-60zm0 0" fill="#2d2d66"/><path d="m397 395c-33.085938 0-60-26.914062-60-60s26.914062-60 60-60 60 26.914062 60 60-26.914062 60-60 60zm0 0" fill="#424278"/><path d="m397 275v120c33.085938 0 60-26.914062 60-60s-26.914062-60-60-60zm0 0" fill="#2d2d66"/><path d="m115 305c-16.542969 0-30 13.457031-30 30s13.457031 30 30 30 30-13.457031 30-30-13.457031-30-30-30zm0 0" fill="#d9ecfa"/><path d="m115 305v60c16.542969 0 30-13.457031 30-30s-13.457031-30-30-30zm0 0" fill="#c1daee"/><path d="m397 305c-16.542969 0-30 13.457031-30 30s13.457031 30 30 30 30-13.457031 30-30-13.457031-30-30-30zm0 0" fill="#d9ecfa"/><path d="m397 305v60c16.542969 0 30-13.457031 30-30s-13.457031-30-30-30zm0 0" fill="#c1daee"/></svg>