<svg height="512pt" viewBox="-46 0 512 512" width="512pt" xmlns="http://www.w3.org/2000/svg"><path d="m406.550781 224.558594-18.3125-59.3125c-6.304687-20.410156-25.171875-34.332032-46.53125-34.332032h-88.691406c-21.359375 0-40.226563 13.921876-46.53125 34.332032l-18.316406 59.3125c-3.59375 11.636718-5.417969 23.746094-5.417969 35.925781v218.492187c0 14.097657 11.425781 25.523438 25.519531 25.523438h178.179688c14.09375 0 25.523437-11.425781 25.523437-25.523438v-218.492187c0-12.179687-1.828125-24.289063-5.421875-35.925781zm-109.191406-1.125c-16.125 0-29.199219-13.070313-29.199219-29.195313 0-16.128906 13.074219-29.199219 29.199219-29.199219 16.128906 0 29.199219 13.070313 29.199219 29.199219 0 16.125-13.070313 29.195313-29.199219 29.195313zm0 0" fill="#89d47f"/><path d="m271.191406 130.914062h-18.175781c-21.359375 0-40.226563 13.921876-46.53125 34.332032l-18.316406 59.3125c-3.589844 11.636718-5.417969 23.746094-5.417969 35.925781v218.492187c0 14.097657 11.425781 25.523438 25.519531 25.523438h80.570313c-45.332032-69.121094-42.066406-279.433594-17.648438-373.585938zm0 0" fill="#5ec783"/><path d="m353.816406 282.1875c-1.917968 0-3.839844-.734375-5.304687-2.199219-2.929688-2.929687-2.929688-7.675781 0-10.605469l11.941406-11.941406c2.929687-2.929687 7.679687-2.929687 10.609375 0 2.925781 2.929688 2.925781 7.679688 0 10.605469l-11.945312 11.941406c-1.460938 1.464844-3.382813 2.199219-5.300782 2.199219zm0 0" fill="#5ec783"/><path d="m343.449219 301.105469h-92.175781c-11.800782 0-21.367188 9.566406-21.367188 21.367187v29.210938c0 11.800781 9.566406 21.367187 21.367188 21.367187h92.175781c11.800781 0 21.367187-9.566406 21.367187-21.367187v-29.210938c0-11.800781-9.566406-21.367187-21.367187-21.367187zm0 0" fill="#f7ef87"/><path d="m253.585938 301.105469h-2.3125c-11.800782 0-21.367188 9.566406-21.367188 21.367187v29.210938c0 11.800781 9.566406 21.367187 21.367188 21.367187h4.964843c-1.882812-23.273437-2.722656-47.644531-2.652343-71.945312zm0 0" fill="#efd176"/><path d="m182.75 424.882812v54.09375c0 14.097657 11.425781 25.523438 25.519531 25.523438h178.179688c14.097656 0 25.523437-11.425781 25.523437-25.523438v-54.09375zm0 0" fill="#f7ef87"/><path d="m262.582031 424.882812h-79.832031v54.09375c0 14.097657 11.425781 25.523438 25.519531 25.523438h80.570313c-11.976563-18.261719-20.558594-46.386719-26.257813-79.617188zm0 0" fill="#efd176"/><path d="m232.289062 424.882812h15v79.617188h-15zm0 0" fill="#f7ef87"/><path d="m289.859375 424.882812h15v79.617188h-15zm0 0" fill="#efd176"/><path d="m347.433594 424.882812h15v79.617188h-15zm0 0" fill="#efd176"/><path d="m370.941406 161.480469-4.058594-102.574219c-.660156-16.667969-14.023437-30.027344-30.691406-30.6875l-102.574218-4.0625c-15.183594-.597656-29.929688 5.167969-40.671876 15.914062l-177.96875 177.96875c-9.96875 9.96875-9.96875 26.128907 0 36.09375l125.988282 125.992188c9.96875 9.964844 26.128906 9.964844 36.09375 0l177.96875-177.96875c10.746094-10.746094 16.515625-25.488281 15.914062-40.675781zm-52.933594-43.09375c-11.402343 11.402343-29.890624 11.402343-41.292968 0-11.40625-11.402344-11.40625-29.890625 0-41.292969 11.402344-11.40625 29.890625-11.40625 41.292968 0 11.402344 11.402344 11.402344 29.890625 0 41.292969zm0 0" fill="#a3defe"/><path d="m218.078125 25.804688c-9.417969 2.386718-18.128906 7.261718-25.132813 14.265624l-177.96875 177.96875c-9.96875 9.96875-9.96875 26.128907 0 36.09375l125.988282 125.992188c9.96875 9.964844 26.128906 9.964844 36.09375 0l48.230468-48.226562c-36.042968-83.0625-40.054687-217.382813-7.210937-306.09375zm0 0" fill="#7acefa"/><path d="m53.226562 179.789062-38.25 38.25c-9.96875 9.96875-9.96875 26.128907 0 36.09375l125.988282 125.992188c9.96875 9.964844 26.128906 9.964844 36.09375 0l38.253906-38.25zm0 0" fill="#6a96d7"/><path d="m168.527344 164.929688c7.925781-7.925782 6.28125-22.417969-3.671875-32.371094s-24.445313-11.597656-32.375-3.671875c-7.925781 7.925781-6.28125 22.417969 3.671875 32.371093 9.953125 9.953126 24.449218 11.597657 32.375 3.671876zm0 0" fill="#fff"/><path d="m230.167969 226.578125c-7.925781 7.925781-6.28125 22.417969 3.671875 32.371094s24.445312 11.597656 32.371094 3.671875c7.925781-7.925782 6.28125-22.417969-3.671876-32.371094-9.953124-9.953125-24.445312-11.597656-32.371093-3.671875zm0 0" fill="#fff"/><path d="m224.902344 199.257812c8.980468-8.980468 3.320312-16.332031-4.707032-24.355468-8.023437-8.023438-15.371093-13.6875-24.351562-4.707032-8.980469 8.980469-9.753906 22.765626-1.730469 30.789063 8.027344 8.027344 21.8125 7.25 30.789063-1.726563zm0 0" fill="#4e5660"/><path d="m267.425781 229.941406 7.734375-7.734375c2.929688-2.929687 2.929688-7.679687 0-10.609375-2.925781-2.929687-7.675781-2.929687-10.605468 0l-7.734376 7.734375c-2.929687 2.929688-2.929687 7.679688 0 10.605469 1.464844 1.46875 3.382813 2.199219 5.300782 2.199219 1.917968 0 3.839844-.730469 5.304687-2.195313zm146.292969-7.597656-18.316406-59.3125c-3.273438-10.597656-9.449219-19.777344-17.953125-26.765625l-3.074219-77.65625c-.296875-7.550781-2.765625-14.585937-6.785156-20.496094l25.3125-25.308593c2.929687-2.933594 2.929687-7.679688 0-10.609376-2.925782-2.925781-7.675782-2.925781-10.605469 0l-25.3125 25.3125c-5.910156-4.019531-12.941406-6.484374-20.496094-6.785156l-102.574219-4.058594c-17.21875-.691406-34.085937 5.914063-46.273437 18.101563l-97.394531 97.398437c-2.929688 2.929688-2.929688 7.675782 0 10.605469 2.929687 2.929688 7.675781 2.929688 10.605468 0l97.394532-97.394531c9.238281-9.238281 22.027344-14.242188 35.074218-13.722656l102.578126 4.058594c3.648437.144531 7.101562 1.109374 10.179687 2.703124l-28.617187 28.617188c-14.226563-9.320312-33.558594-7.734375-46.050782 4.757812-6.929687 6.929688-10.746094 16.144532-10.746094 25.949219 0 9.804688 3.816407 19.019531 10.746094 25.949219 6.933594 6.933594 16.148438 10.75 25.953125 10.75 9.800781 0 19.015625-3.816406 25.949219-10.75 6.929688-6.929688 10.75-16.144531 10.75-25.949219 0-7.253906-2.097656-14.179687-5.992188-20.105469l28.617188-28.613281c1.59375 3.082031 2.554688 6.535157 2.699219 10.183594l4.0625 102.574219c.515625 13.054687-4.488281 25.835937-13.722657 35.074218l-98.945312 98.941407-.007812.007812-35.460938 35.464844-151.480469-151.476563 12.292969-12.292968c2.929688-2.929688 2.929688-7.679688 0-10.605469-2.929688-2.929687-7.679688-2.929687-10.605469 0l-17.59375 17.59375h-.003906v.003906l-38.25 38.246094c-6.238281 6.238281-9.671875 14.53125-9.671875 23.351563 0 8.820312 3.433594 17.113281 9.671875 23.351562l125.992187 125.988281c6.234376 6.238281 14.527344 9.675781 23.347657 9.675781 5.785156 0 11.335937-1.488281 16.238281-4.261718v88.136718c0 18.210938 14.8125 33.023438 33.019531 33.023438h178.179688c10.34375 0 20.226562-4.945312 26.4375-13.230469 2.484375-3.3125 1.8125-8.011719-1.503907-10.496093-3.3125-2.484376-8.015624-1.816407-10.5 1.5-3.441406 4.59375-8.703124 7.226562-14.433593 7.226562h-178.179688c-9.9375 0-18.019531-8.085938-18.019531-18.023438v-46.59375h214.222656v27.464844c0 4.140625 3.359375 7.5 7.5 7.5s7.5-3.359375 7.5-7.5v-199.363281c0-12.941406-1.9375-25.773437-5.753906-38.140625zm-101.015625-109.261719c-4.097656 4.097657-9.546875 6.355469-15.34375 6.355469-5.792969 0-11.242187-2.257812-15.34375-6.355469-4.097656-4.097656-6.355469-9.546875-6.355469-15.34375s2.257813-11.246093 6.355469-15.34375c4.230469-4.230469 9.789063-6.347656 15.34375-6.347656 3.105469 0 6.203125.6875 9.078125 2.007813l-3.699219 3.699218c-2.929687 2.929688-2.929687 7.675782 0 10.605469 1.464844 1.464844 3.382813 2.195313 5.304688 2.195313 1.917969 0 3.835937-.730469 5.300781-2.195313l3.707031-3.707031c1.300781 2.8125 2.011719 5.890625 2.011719 9.085937 0 5.796875-2.257812 11.246094-6.359375 15.34375zm-75.296875 217.304688 21.78125-21.78125h84.261719c7.644531 0 13.867187 6.21875 13.867187 13.867187v29.210938c0 7.648437-6.222656 13.867187-13.867187 13.867187h-92.175781c-7.644532 0-13.867188-6.21875-13.867188-13.867187zm-59.957031 38.742187-5.691407 5.691406c-3.40625 3.40625-7.929687 5.28125-12.746093 5.28125-4.8125 0-9.335938-1.875-12.742188-5.28125l-125.992187-125.992187c-3.402344-3.402344-5.277344-7.929687-5.277344-12.742187s1.875-9.339844 5.277344-12.742188l32.949218-32.949219 151.476563 151.480469zm227.023437 48.253906h-214.222656v-39.839843l32.15625-32.15625v6.296875c0 15.917968 12.949219 28.867187 28.867188 28.867187h92.171874c15.921876 0 28.871094-12.949219 28.871094-28.867187v-29.210938c0-15.921875-12.949218-28.871094-28.871094-28.871094h-69.257812l86.144531-86.140624c12.1875-12.191407 18.785157-29.054688 18.105469-46.277344l-.011719-.261719c1.054688 2.082031 1.941407 4.261719 2.644531 6.535156l18.316407 59.316407c3.375 10.929687 5.085937 22.269531 5.085937 33.710937zm-313.695312-154.351562c-2.929688-2.929688-7.679688-2.929688-10.605469 0-2.929687 2.929688-2.929687 7.675781 0 10.605469l41.292969 41.292969c1.464844 1.464843 3.382812 2.195312 5.300781 2.195312 1.921875 0 3.839844-.730469 5.304687-2.195312 2.929688-2.929688 2.929688-7.675782 0-10.605469zm82.117187-143.09375-7.734375 7.734375c-2.929687 2.929687-2.929687 7.679687 0 10.609375 1.464844 1.464844 3.382813 2.195312 5.300782 2.195312 1.921874 0 3.839843-.730468 5.304687-2.195312l7.734375-7.734375c2.929688-2.929687 2.929688-7.679687 0-10.609375-2.925781-2.925781-7.675781-2.925781-10.605469 0zm52.605469 49.660156c-5.933594-5.933594-19.832031-19.832031-34.960938-4.707031-5.648437 5.648437-8.996093 12.980469-9.425781 20.636719-.445312 7.976562 2.285157 15.351562 7.699219 20.761718 5.027344 5.027344 11.746094 7.746094 19.074219 7.746094.558593 0 1.121093-.019531 1.6875-.050781 7.65625-.429687 14.984375-3.777344 20.632812-9.425781 15.125-15.125 1.226563-29.023438-4.707031-34.960938zm-5.898438 24.355469h-.003906c-3.035156 3.039063-6.894531 4.832031-10.867187 5.054687-3.652344.214844-6.960938-.976562-9.3125-3.324218-2.351563-2.351563-3.535157-5.660156-3.328125-9.3125.222656-3.972656 2.019531-7.832032 5.054687-10.871094 1.335938-1.332031 2.355469-2.355469 3.820313-2.355469 1.945312 0 4.664062 1.800781 9.925781 7.0625 9.230469 9.226563 7.8125 10.640625 4.710937 13.746094zm0 0"/></svg>